mtllib material.mtl
o Default
v -0.0903548002243042 -0.5609567761421204 -0.08495351672172546
v 0.10964500904083252 -0.5609567761421204 0.11504629254341125
v -0.0903548002243042 -0.5609567761421204 0.11504629254341125
v 0.10964500904083252 -0.5609567761421204 -0.08495351672172546
v -0.00702154403552413 0.43904322385787964 0.03171280026435852
v -0.00702154403552413 0.43904322385787964 -0.001620024791918695
v 0.026311757043004036 0.43904322385787964 -0.001620024791918695
v 0.026311757043004036 0.43904322385787964 0.03171280026435852
v 0.3395060896873474 -0.09567901492118835 0.03587956726551056
v -0.4104938507080078 0.591821014881134 0.09837938845157623
v 0.4645060896873474 0.34182098507881165 -0.27662044763565063
v -0.2854938507080078 -0.09567901492118835 0.03587938845157623
v 0.027006106451153755 -0.09567901492118835 -0.21412044763565063
v 0.2145061045885086 0.654321014881134 0.41087955236434937
v -0.4729938805103302 0.40432098507881165 -0.46412044763565063
v 0.027006106451153755 -0.09567901492118835 0.22337955236434937
vt 0 0.6000000238418579
vt 0.20000000298023224 0.800000011920929
vt 0 0.800000011920929
vt 0.20000000298023224 0.6000000238418579
vt 0 0
vt 0.4000000059604645 0.20000000298023224
vt 0 0.20000000298023224
vt 0.4000000059604645 0
vn 0 -1 0
vn -0.99654576 0.0830454 0
vn 0 0.08304564 -0.99654575
vn 0.99654576 0.0830454 0
vn 0 0.08304564 0.99654575
vn -0.45652447 -0.42707141 -0.78050972
vn 2.8e-7 0.09053579 -0.9958932
vn -2.8e-7 -0.09053579 0.9958932
vn 0.45652447 0.42707141 0.78050972
vn -0.68023547 -0.36137508 0.63772075
vn -0.9701425 0.24253561 0
vn 0.9701425 -0.24253561 0
vn 0.68023547 0.36137508 -0.63772075
g shrubTreeb
usemtl 0
f 1/1/1 2/2/1 3/3/1
f 1/1/1 4/4/1 2/2/1
f 1/1/2 5/2/2 6/3/2
f 1/1/2 3/4/2 5/2/2
f 4/1/3 6/2/3 7/3/3
f 4/1/3 1/4/3 6/2/3
f 2/1/4 7/2/4 8/3/4
f 2/1/4 4/4/4 7/2/4
f 3/1/5 8/2/5 5/3/5
f 3/1/5 2/4/5 8/2/5
f 9/5/6 10/6/6 11/7/6
f 9/5/7 12/8/7 10/6/7
f 12/5/8 9/8/8 10/7/8
f 9/8/9 11/6/9 10/7/9
f 13/5/10 14/6/10 15/7/10
f 13/5/11 16/8/11 14/6/11
f 16/5/12 13/8/12 14/7/12
f 13/8/13 15/6/13 14/7/13
