mtllib material.mtl
o Default
v -0.25 -0.005681818351149559 -0.25
v 0.25 -0.005681818351149559 0.25
v -0.25 -0.005681818351149559 0.25
v 0.25 -0.005681818351149559 -0.25
v -0.1666666716337204 0.4943181872367859 0.1666666716337204
v -0.1666666716337204 0.4943181872367859 -0.1666666716337204
v 0.1666666716337204 0.4943181872367859 -0.1666666716337204
v 0.1666666716337204 0.4943181872367859 0.1666666716337204
v 0 0.4630681872367859 0
v 0.5524271726608276 0.4630681872367859 -0.5524271726608276
v 0.5524271726608276 0.4630681872367859 0.5524271726608276
v -0.5524271726608276 0.4630681872367859 -0.5524271726608276
v -0.5524271726608276 0.4630681872367859 0.5524271726608276
v 0 2.0255682468414307 0
vt 0 0.6000000238418579
vt 0.20000000298023224 0.800000011920929
vt 0 0.800000011920929
vt 0.20000000298023224 0.6000000238418579
vt 0.30000001192092896 0.8999999761581421
vt 0.37071067094802856 0.8292893171310425
vt 0.37071067094802856 0.9707106947898865
vt 0.22928932309150696 0.8292893171310425
vt 0.22928932309150696 0.9707106947898865
vt 0.4000000059604645 0.800000011920929
vt 0.30000001192092896 1
vn 0 -1 0
vn -0.98639393 0.16439898 0
vn 0 0.16439898 -0.98639393
vn 0.98639393 0.16439898 0
vn 0 0.16439898 0.98639393
vn -0.94280905 0.33333332 0
vn 0 0.33333332 -0.94280905
vn 0.94280905 0.33333332 0
vn 0 0.33333332 0.94280905
g tree pyramid
usemtl 0
f 1/1/1 2/2/1 3/3/1
f 1/1/1 4/4/1 2/2/1
f 1/1/2 5/2/2 6/3/2
f 1/1/2 3/4/2 5/2/2
f 4/1/3 6/2/3 7/3/3
f 4/1/3 1/4/3 6/2/3
f 2/1/4 7/2/4 8/3/4
f 2/1/4 4/4/4 7/2/4
f 3/1/5 8/2/5 5/3/5
f 3/1/5 2/4/5 8/2/5
f 9/5/1 10/6/1 11/7/1
f 9/5/1 12/8/1 10/6/1
f 9/5/1 13/9/1 12/8/1
f 9/5/1 11/7/1 13/9/1
f 12/2/6 13/10/6 14/11/6
f 10/2/7 12/10/7 14/11/7
f 11/2/8 10/10/8 14/11/8
f 13/2/9 11/10/9 14/11/9
