# Blender 4.4.3
# www.blender.org
mtllib ufo_fighter.mtl
o Aline_fighter
v -0.462011 -0.311592 0.141622
v -0.185068 -0.103428 0.141622
v -0.462011 -0.311592 -0.358378
v -0.185068 -0.103428 -0.358378
v 0.442987 -0.311592 0.141622
v 0.166043 -0.103428 0.141622
v 0.442987 -0.311592 -0.358378
v 0.166043 -0.103428 -0.358378
v -0.009512 -0.193910 1.101252
v -0.009512 -0.193910 -0.694446
v 0.347822 -0.413664 -0.358379
v 0.347822 -0.190753 0.141622
v 0.347822 -0.413664 0.141622
v 0.347822 -0.190753 -0.358379
v 0.720529 -0.302209 0.141622
v 0.720529 -0.302209 -0.358379
v 0.472058 -0.302209 0.700956
v 0.472058 -0.302209 -0.613366
v -0.373188 -0.413664 0.158007
v -0.373188 -0.190753 -0.341993
v -0.373188 -0.413664 -0.341993
v -0.373188 -0.190753 0.158007
v -0.745895 -0.302209 -0.341993
v -0.745895 -0.302209 0.158007
v -0.497424 -0.302209 -0.613366
v -0.497423 -0.302209 0.700956
vn -0.6008 0.7994 -0.0000
vn -0.5311 0.7066 -0.4677
vn 0.6008 0.7994 -0.0000
vn -0.5908 0.7860 0.1822
vn -0.0000 -1.0000 -0.0000
vn -0.0000 1.0000 -0.0000
vn 0.5311 0.7066 -0.4677
vn -0.0000 -0.9926 0.1217
vn -0.0000 0.9956 0.0939
vn 0.5908 0.7860 0.1822
vn 0.2865 -0.9581 -0.0000
vn -0.0000 -0.9438 -0.3305
vn -0.0000 0.9656 -0.2600
vn 0.2865 0.9581 -0.0000
vn -1.0000 -0.0000 -0.0000
vn -0.9762 -0.0000 0.2168
vn 0.2842 -0.9504 0.1263
vn 0.2842 0.9504 0.1263
vn 0.2760 -0.9228 -0.2689
vn 0.2760 0.9228 -0.2689
vn -0.8990 -0.0000 -0.4380
vn -0.2865 -0.9581 -0.0000
vn -0.2865 0.9581 -0.0000
vn 1.0000 -0.0000 -0.0000
vn 0.9092 -0.0000 -0.4163
vn -0.2771 -0.9267 -0.2537
vn -0.2771 0.9267 -0.2537
vn -0.2841 -0.9499 0.1300
vn -0.2841 0.9499 0.1300
vn 0.9748 -0.0000 0.2231
vt 0.367188 0.328125
vt 0.468750 0.335938
vt 0.468750 0.484375
vt 0.359375 0.492188
vt 0.523438 0.609375
vt 0.679688 0.500000
vt 0.578125 0.492188
vt 0.578125 0.335938
vt 0.687500 0.335938
vt 0.531250 0.031250
vt 0.328125 0.500000
vt 0.015625 0.500000
vt 0.015625 0.328125
vt 0.328125 0.328125
vt 0.171875 -0.000000
vt 0.101562 0.812500
vt 0.109375 0.679688
vt 0.281250 0.687500
vt 0.273438 0.820312
vt 0.171875 0.617188
vt 0.921875 0.414062
vt 0.796875 0.398438
vt 0.796875 0.242188
vt 0.929688 0.234375
vt 0.718750 0.414062
vt 0.718750 0.226562
vt 0.828125 0.039062
vt 0.468750 0.757812
vt 0.015625 0.765625
vt 0.812500 0.500000
vt 0.375000 0.960938
vt 0.390625 0.828125
vt 0.554688 0.828125
vt 0.546875 0.960938
vt 0.742188 0.695312
vt 0.875000 0.695312
vt 0.875000 0.859375
vt 0.742188 0.875000
vt 0.945312 0.687500
vt 0.945312 0.875000
vt 0.851562 0.960938
vt 0.648438 0.906250
vt 0.195312 0.898438
vt 0.851562 0.507812
s 0
f 1/1/1 2/2/1 4/3/1 3/4/1
f 3/4/2 4/3/2 10/5/2
f 7/6/3 8/7/3 6/8/3 5/9/3
f 2/2/4 1/1/4 9/10/4
f 3/11/5 7/12/5 5/13/5 1/14/5
f 8/7/6 4/3/6 2/2/6 6/8/6
f 8/7/7 7/6/7 10/5/7
f 1/14/8 5/13/8 9/15/8
f 6/8/9 2/2/9 9/10/9
f 5/9/10 6/8/10 9/10/10
f 11/16/11 16/17/11 15/18/11 13/19/11
f 7/12/12 3/11/12 10/20/12
f 4/3/13 8/7/13 10/5/13
f 16/21/14 14/22/14 12/23/14 15/24/14
f 11/25/15 13/26/15 12/23/15 14/22/15
f 12/23/16 13/26/16 17/27/16
f 13/19/17 15/18/17 17/28/17
f 15/24/18 12/23/18 17/27/18
f 16/17/19 11/16/19 18/29/19
f 14/22/20 16/21/20 18/30/20
f 11/25/21 14/22/21 18/30/21
f 19/31/22 24/32/22 23/33/22 21/34/22
f 24/35/23 22/36/23 20/37/23 23/38/23
f 19/39/24 21/40/24 20/37/24 22/36/24
f 20/37/25 21/40/25 25/41/25
f 21/34/26 23/33/26 25/42/26
f 23/38/27 20/37/27 25/41/27
f 24/32/28 19/31/28 26/43/28
f 22/36/29 24/35/29 26/44/29
f 19/39/30 22/36/30 26/44/30
